name rise45.9887peak57.8056fall74.9286.mot
datacolumns 19
datarows 20
range 17.07827100000000 17.10993400000000
endheader
time	ground_force1_vx	ground_force1_vy	ground_force1_vz	ground_force1_px	ground_force1_py	ground_force1_pz	ground_force2_vx	ground_force2_vy	ground_force2_vz	ground_force2_px	ground_force2_py	ground_force2_pz	ground_torque1_x	ground_torque1_y	ground_torque1_z	ground_torque2_x	ground_torque2_y	ground_torque2_z	
17.07827100000000	-6.62846800000000	43.28590700000000	-11.48267300000000	0.26653700000000	0.00000000000000	0.11128400000000	-50.21046400000000	789.49034600000005	-52.34309900000000	0.09351400000000	0.00000000000000	-0.07338300000000	0.00000000000000	-6.22678400000000	0.00000000000000	0.00000000000000	-15.76843500000000	0.00000000000000	
17.07993400000000	-7.20794200000000	50.77917300000000	-12.90763200000000	0.27325400000000	0.00000000000000	0.11243100000000	-50.79634000000000	786.95849899999996	-52.02109800000000	0.09279100000000	0.00000000000000	-0.07327300000000	0.00000000000000	-7.12937500000000	0.00000000000000	0.00000000000000	-15.71247900000000	0.00000000000000	
17.08160100000000	-7.64418200000000	58.37739800000000	-14.20090900000000	0.27928700000000	0.00000000000000	0.11346700000000	-51.40025500000000	784.29845000000000	-51.67656500000000	0.09207000000000	0.00000000000000	-0.07315900000000	0.00000000000000	-7.98282200000000	0.00000000000000	0.00000000000000	-15.65866700000000	0.00000000000000	
17.08326700000000	-7.91850300000000	65.98312199999999	-15.33215700000000	0.28474500000000	0.00000000000000	0.11441000000000	-52.02171800000000	781.50720600000000	-51.30942400000000	0.09135100000000	0.00000000000000	-0.07304100000000	0.00000000000000	-8.76777600000000	0.00000000000000	0.00000000000000	-15.60697800000000	0.00000000000000	
17.08493400000000	-8.02001400000000	73.52219300000000	-16.28129100000000	0.28971900000000	0.00000000000000	0.11527400000000	-52.66012300000000	778.58172700000000	-50.91962900000000	0.09063500000000	0.00000000000000	-0.07291900000000	0.00000000000000	-9.47029500000000	0.00000000000000	0.00000000000000	-15.55737300000000	0.00000000000000	
17.08659900000000	-7.94546100000000	80.94609600000000	-17.03862200000000	0.29427800000000	0.00000000000000	0.11607000000000	-53.31474700000000	775.51893299999995	-50.50716400000000	0.08992300000000	0.00000000000000	-0.07279300000000	0.00000000000000	-10.08213400000000	0.00000000000000	0.00000000000000	-15.50979100000000	0.00000000000000	
17.08827200000000	-7.69847600000000	88.23178200000000	-17.60410600000000	0.29848000000000	0.00000000000000	0.11680800000000	-53.98475300000000	772.31571899999994	-50.07204300000000	0.08921500000000	0.00000000000000	-0.07266300000000	0.00000000000000	-10.60052500000000	0.00000000000000	0.00000000000000	-15.46415600000000	0.00000000000000	
17.08994000000000	-7.28839200000000	95.37943700000000	-17.98594000000000	0.30237300000000	0.00000000000000	0.11749400000000	-54.66918600000000	768.96896100000004	-49.61430800000000	0.08851100000000	0.00000000000000	-0.07252900000000	0.00000000000000	-11.02753900000000	0.00000000000000	0.00000000000000	-15.42036900000000	0.00000000000000	
17.09160600000000	-6.72880200000000	102.40871000000000	-18.19871900000000	0.30599400000000	0.00000000000000	0.11813700000000	-55.36697500000000	765.47552900000005	-49.13403800000000	0.08781300000000	0.00000000000000	-0.07239000000000	0.00000000000000	-11.36916600000000	0.00000000000000	0.00000000000000	-15.37831400000000	0.00000000000000	
17.09327200000000	-6.03601600000000	109.35401500000000	-18.26139000000000	0.30937700000000	0.00000000000000	0.11873900000000	-56.07693300000000	761.83229800000004	-48.63134000000000	0.08712100000000	0.00000000000000	-0.07224800000000	0.00000000000000	-11.63422300000000	0.00000000000000	0.00000000000000	-15.33785400000000	0.00000000000000	
17.09493600000000	-5.22756700000000	116.25941800000000	-18.19520400000000	0.31254700000000	0.00000000000000	0.11930700000000	-56.79775800000000	758.03616399999999	-48.10635700000000	0.08643600000000	0.00000000000000	-0.07210100000000	0.00000000000000	-11.83322200000000	0.00000000000000	0.00000000000000	-15.29883600000000	0.00000000000000	
17.09660700000000	-4.32088300000000	123.17363700000000	-18.02184200000000	0.31552800000000	0.00000000000000	0.11984400000000	-57.52803500000000	754.08405200000004	-47.55926600000000	0.08575800000000	0.00000000000000	-0.07194900000000	0.00000000000000	-11.97729600000000	0.00000000000000	0.00000000000000	-15.26108400000000	0.00000000000000	
17.09826900000000	-3.33219000000000	130.14549800000000	-17.76181700000000	0.31833800000000	0.00000000000000	0.12035300000000	-58.26623600000000	749.97293400000001	-46.99027700000000	0.08508800000000	0.00000000000000	-0.07179400000000	0.00000000000000	-12.07725500000000	0.00000000000000	0.00000000000000	-15.22440700000000	0.00000000000000	
17.09993300000000	-2.27570200000000	137.22015700000000	-17.43325100000000	0.32099300000000	0.00000000000000	0.12083800000000	-59.01072900000000	745.69984499999998	-46.39963900000000	0.08442700000000	0.00000000000000	-0.07163500000000	0.00000000000000	-12.14283800000000	0.00000000000000	0.00000000000000	-15.18859700000000	0.00000000000000	
17.10160200000000	-1.16311600000000	144.43622099999999	-17.05104000000000	0.32350600000000	0.00000000000000	0.12129900000000	-59.75977200000000	741.26189499999998	-45.78763500000000	0.08377400000000	0.00000000000000	-0.07147100000000	0.00000000000000	-12.18216700000000	0.00000000000000	0.00000000000000	-15.15342500000000	0.00000000000000	
17.10327300000000	-0.00337700000000	151.82384700000000	-16.62641300000000	0.32589000000000	0.00000000000000	0.12174000000000	-60.51152500000000	736.65629000000001	-45.15458600000000	0.08313100000000	0.00000000000000	-0.07130300000000	0.00000000000000	-12.20142800000000	0.00000000000000	0.00000000000000	-15.11865000000000	0.00000000000000	
17.10493900000000	1.19729900000000	159.40377400000000	-16.16684500000000	0.32815400000000	0.00000000000000	0.12216300000000	-61.26404900000000	731.88034700000003	-44.50085000000000	0.08249800000000	0.00000000000000	-0.07113100000000	0.00000000000000	-12.20475500000000	0.00000000000000	0.00000000000000	-15.08401400000000	0.00000000000000	
17.10660500000000	2.43519500000000	167.18720300000001	-15.67626200000000	0.33030500000000	0.00000000000000	0.12256900000000	-62.01531100000000	726.93151399999999	-43.82682500000000	0.08187600000000	0.00000000000000	-0.07095400000000	0.00000000000000	-12.19428800000000	0.00000000000000	0.00000000000000	-15.04924400000000	0.00000000000000	
17.10826900000000	3.70871900000000	175.17636899999999	-15.15548100000000	0.33235300000000	0.00000000000000	0.12295800000000	-62.76319400000000	721.80738599999995	-43.13294400000000	0.08126500000000	0.00000000000000	-0.07077400000000	0.00000000000000	-12.17037800000000	0.00000000000000	0.00000000000000	-15.01405400000000	0.00000000000000	
17.10993400000000	5.01793600000000	183.36564500000000	-14.60279700000000	0.33430100000000	0.00000000000000	0.12333400000000	-63.50549700000000	716.50572599999998	-42.41968100000000	0.08066500000000	0.00000000000000	-0.07058900000000	0.00000000000000	-12.13188600000000	0.00000000000000	0.00000000000000	-14.97814600000000	0.00000000000000	
